<svg width="21" height="23" viewBox="0 0 21 23" fill="none" xmlns="http://www.w3.org/2000/svg">
<path d="M0 22.969L4.43083 11.9174C4.51572 11.7646 4.85864 11.459 5.55127 11.459H11.2553C12.1211 11.459 13.5471 11.5609 13.9037 10.7969C14.2602 10.033 14.4777 9.65704 14.9732 8.55604C15.4315 7.53751 15.4315 7.5883 16.3992 7.58831L19.0475 7.58829C18.0459 9.64243 16.4501 13.6489 15.3297 14.4129C14.5852 14.9205 13.4962 14.9731 12.8341 14.9731H7.13008L3.92154 22.969H0Z" fill="#2C6DB5"/>
<path d="M20.3207 4.07435C21.0133 2.64833 21.0337 2.64831 20.9828 2.64833H16.4501L17.6724 0H14.8203C14.311 0 14.0055 0 13.6999 0.662079C13.4554 1.19174 13.0065 2.20694 12.8127 2.64833H11.2044C8.86162 2.64833 7.79211 3.92154 7.28282 5.14384C6.87539 6.12168 5.68704 8.74283 5.1438 9.93118H8.86162C9.26906 8.92957 10.1043 6.86525 10.1858 6.62079C10.2876 6.31521 10.3895 6.11149 11.0516 6.11149C11.7137 6.11149 13.8527 6.06057 16.8575 6.11149C19.8623 6.16242 19.4549 5.85687 20.3207 4.07435Z" fill="#2C6DB5"/>
</svg>
