<svg width="28" height="33" viewBox="0 0 28 33" fill="none" xmlns="http://www.w3.org/2000/svg">
<path d="M24.4847 5.95311L18.6449 0.113068C18.5723 0.0406647 18.4741 0 18.3717 0H9.80418C9.59094 0 9.41797 0.172974 9.41797 0.386215C9.41797 0.599457 9.59094 0.772232 9.80418 0.772232H17.9855V4.36957C17.9855 5.60617 18.9916 6.61227 20.2284 6.61227H23.8256V19.0376C23.8256 19.2509 23.9985 19.4236 24.2118 19.4236C24.425 19.4236 24.5978 19.2509 24.5978 19.0376V6.22606C24.5978 6.1237 24.5571 6.02551 24.4847 5.95311ZM18.7579 4.36957V1.31833L23.2795 5.84004H20.2284C19.4175 5.84004 18.7579 5.18028 18.7579 4.36957Z" fill="#2C6DB5"/>
<path d="M24.2118 19.9386C23.9985 19.9386 23.8256 20.1116 23.8256 20.3248V23.7573C23.8256 24.568 23.166 25.2278 22.3551 25.2278H5.68021C4.86949 25.2278 4.20973 24.568 4.20973 23.7573V2.24271C4.20973 1.43199 4.86949 0.772232 5.68021 0.772232H8.51701C8.73045 0.772232 8.90323 0.599457 8.90323 0.386215C8.90323 0.172974 8.73045 0 8.51701 0H5.68021C4.4436 0 3.4375 1.0061 3.4375 2.24271V23.7573C3.4375 24.9939 4.4436 26 5.68021 26H22.3553C23.5919 26 24.598 24.9939 24.598 23.7573V20.3248C24.5978 20.1116 24.425 19.9386 24.2118 19.9386Z" fill="#2C6DB5"/>
<path d="M20.5562 10.4648H7.47899C7.26555 10.4648 7.09277 10.6378 7.09277 10.8511C7.09277 11.0643 7.26555 11.2373 7.47899 11.2373H20.5562C20.7694 11.2373 20.9422 11.0643 20.9422 10.8511C20.9422 10.6378 20.7694 10.4648 20.5562 10.4648Z" fill="#2C6DB5"/>
<path d="M20.5562 12.834H7.47899C7.26555 12.834 7.09277 13.0068 7.09277 13.22C7.09277 13.4332 7.26555 13.6062 7.47899 13.6062H20.5562C20.7694 13.6062 20.9422 13.4332 20.9422 13.22C20.9422 13.0068 20.7694 12.834 20.5562 12.834Z" fill="#2C6DB5"/>
<path d="M20.5562 15.2012H7.47899C7.26555 15.2012 7.09277 15.3739 7.09277 15.5874C7.09277 15.8006 7.26555 15.9734 7.47899 15.9734H20.5562C20.7694 15.9734 20.9422 15.8006 20.9422 15.5874C20.9422 15.3739 20.7694 15.2012 20.5562 15.2012Z" fill="#2C6DB5"/>
<path d="M1 32H27" stroke="#2C6DB5" stroke-width="2" stroke-linecap="round"/>
</svg>
